<svg width="325" height="117" viewBox="0 0 325 117" fill="none" xmlns="http://www.w3.org/2000/svg">
<path d="M67.3666 41.3435H59.2466L47.5177 71.7513H54.8691L56.7738 66.5776H67.8678L65.8629 60.9032H58.5449L63.2899 47.8189L71.744 71.7513H79.0954L67.3666 41.3435ZM190.77 71.7513V41.3435H197.286V66.0435H210.151V71.7513H190.77ZM228.363 71.7513V41.3435H234.912V66.0435H247.777V71.7513H228.363ZM154.615 46.7841C160.028 46.7841 164.405 51.1567 164.405 56.564C164.405 61.9714 160.028 66.3439 154.615 66.3439C149.201 66.3439 144.824 61.9714 144.824 56.564C144.824 51.1567 149.235 46.7841 154.615 46.7841V46.7841ZM154.615 40.8428C145.927 40.8428 138.876 47.8856 138.876 56.564C138.876 65.2425 145.927 72.2853 154.615 72.2853C163.303 72.2853 170.353 65.2425 170.353 56.564C170.353 47.8856 163.303 40.8428 154.615 40.8428V40.8428ZM277.785 46.7841C283.198 46.7841 287.575 51.1567 287.575 56.564C287.575 61.9714 283.198 66.3439 277.785 66.3439C272.371 66.3439 267.994 61.9714 267.994 56.564C267.994 51.1567 272.371 46.7841 277.785 46.7841ZM277.785 40.8428C269.096 40.8428 262.046 47.8856 262.046 56.564C262.046 65.2425 269.096 72.2853 277.785 72.2853C286.473 72.2853 293.523 65.2425 293.523 56.564C293.523 47.8856 286.473 40.8428 277.785 40.8428ZM112.277 41.3435H98.0755V71.7513H104.558V61.2704H112.277C117.69 61.2704 122.068 56.6976 122.068 51.2902C122.068 45.9163 117.69 41.3435 112.277 41.3435V41.3435ZM112.277 55.329H104.558V47.2848H112.277C114.382 47.2848 116.12 49.1874 116.12 51.2902C116.12 53.3931 114.382 55.329 112.277 55.329V55.329Z" fill="white"/>
<path d="M92.4945 80.9638C91.9264 80.9638 91.4252 81.2308 91.1244 81.6647C91.1244 81.6647 89.6541 83.3336 88.8856 84.1347C85.544 87.4726 81.6678 90.0761 77.3572 91.9119C72.8795 93.8145 68.1345 94.7491 63.2224 94.7491C58.3103 94.7491 53.5653 93.7811 49.0876 91.9119C44.777 90.0761 40.8674 87.4726 37.5592 84.1347C34.2177 80.7969 31.6113 76.925 29.7734 72.6192C27.8687 68.1464 26.9331 63.4067 26.9331 58.5C26.9331 53.5934 27.9021 48.8537 29.7734 44.3809C31.5778 40.0751 34.1843 36.1698 37.5258 32.8654C40.8674 29.5275 44.7436 26.924 49.0542 25.0882C53.5319 23.1856 58.2769 22.251 63.189 22.251C68.1011 22.251 72.8461 23.219 77.3238 25.0882C80.4649 26.4233 83.372 28.159 86.0118 30.2952C85.8782 30.6958 85.7779 31.1631 85.7779 31.6303C85.7779 33.9001 87.6158 35.7359 89.8881 35.7359C92.1603 35.7359 93.9982 33.9001 93.9982 31.6303C93.9982 29.3606 92.1603 27.5248 89.8881 27.5248C89.32 27.5248 88.7853 27.6249 88.3175 27.8586C81.4673 22.251 72.7459 18.8798 63.189 18.8798C41.3018 18.8798 23.5581 36.6037 23.5581 58.5C23.5581 80.3963 41.3018 98.1203 63.2224 98.1203C75.4859 98.1203 86.4128 92.5795 93.6974 83.8343C93.9982 83.5339 94.1987 83.1 94.1987 82.6661C94.1652 81.7315 93.3967 80.9638 92.4945 80.9638Z" fill="white"/>
</svg>
