<svg width="87" height="79" viewBox="0 0 87 79" fill="none" xmlns="http://www.w3.org/2000/svg">
<g clip-path="url(#clip0_76_101)">
<path d="M28.6194 0V20.25H36.0069L42.5 9H59V0H28.6194Z" fill="#DB4437"/>
<path d="M28.6194 0V20.25H36.0069L42.5 9H59V0H28.6194Z" fill="url(#paint0_linear_76_101)"/>
<path d="M36.1813 20.175L28.7151 7.36877L28.6063 7.55627L36.0201 20.2688L36.1813 20.175Z" fill="#3E2723" fill-opacity="0.15"/>
<path d="M26 33H41.7069L48.9969 25.71V20.25H36.0031L26 3.08997V33Z" fill="#0F9D58"/>
<path d="M26 33H41.7069L48.9969 25.71V20.25H36.0031L26 3.08997V33Z" fill="url(#paint1_linear_76_101)"/>
<path d="M48.8375 20.4937L48.6818 20.4037L41.4818 32.9943H41.6975L48.8412 20.4993L48.8375 20.4937Z" fill="#263238" fill-opacity="0.15"/>
<path d="M42.5002 9L48.9971 20.25L41.7071 33H59.0002V9H42.5002Z" fill="#FFCD40"/>
<path d="M42.5002 9L48.9971 20.25L41.7071 33H59.0002V9H42.5002Z" fill="url(#paint2_linear_76_101)"/>
<path d="M42.4999 9L48.9968 20.25L41.7068 33H58.9999V9H42.4999Z" fill="#FFCD40"/>
<path d="M42.4999 9L48.9968 20.25L41.7068 33H58.9999V9H42.4999Z" fill="url(#paint3_linear_76_101)"/>
<path d="M28.6192 0V20.25H36.0067L42.4998 9H58.9998V0H28.6192Z" fill="#DB4437"/>
<path d="M28.6192 0V20.25H36.0067L42.4998 9H58.9998V0H28.6192Z" fill="url(#paint4_linear_76_101)"/>
<path d="M42.5 9V12.9281L57.2 9H42.5Z" fill="url(#paint5_radial_76_101)"/>
<path d="M26 33H41.7069L48.9969 25.71V20.25H36.0031L26 3.08997V33Z" fill="#0F9D58"/>
<path d="M26 33H41.7069L48.9969 25.71V20.25H36.0031L26 3.08997V33Z" fill="url(#paint6_linear_76_101)"/>
<path d="M28.6194 7.58435L39.3538 18.3169L36.005 20.25L28.6194 7.58435Z" fill="url(#paint7_radial_76_101)"/>
<path d="M41.7182 32.9812L45.6482 18.3187L48.9969 20.25L41.7182 32.9812Z" fill="url(#paint8_radial_76_101)"/>
<path d="M42.4999 24C46.6421 24 49.9999 20.6421 49.9999 16.5C49.9999 12.3579 46.6421 9 42.4999 9C38.3578 9 34.9999 12.3579 34.9999 16.5C34.9999 20.6421 38.3578 24 42.4999 24Z" fill="#F1F1F1"/>
<path d="M42.5002 22.5C45.8139 22.5 48.5002 19.8137 48.5002 16.5C48.5002 13.1863 45.8139 10.5 42.5002 10.5C39.1864 10.5 36.5002 13.1863 36.5002 16.5C36.5002 19.8137 39.1864 22.5 42.5002 22.5Z" fill="#4285F4"/>
<path d="M42.4999 8.8125C38.3562 8.8125 34.9999 12.1687 34.9999 16.3125V16.5C34.9999 12.3562 38.3562 9 42.4999 9H58.9999V8.8125H42.4999Z" fill="#3E2723" fill-opacity="0.2"/>
<path d="M48.9875 20.25C47.69 22.4887 45.275 24 42.5 24C39.725 24 37.3062 22.4887 36.0125 20.25H36.005L26 3.08997V3.27747L36.0125 20.4375C37.31 22.6762 39.725 24.1875 42.5 24.1875C45.275 24.1875 47.69 22.6781 48.9875 20.4375H48.9969V20.25H48.9856H48.9875Z" fill="white" fill-opacity="0.1"/>
<path opacity="0.1" d="M42.6874 9C42.6555 9 42.6255 9.00375 42.5937 9.00562C46.6924 9.05625 49.9999 12.39 49.9999 16.5C49.9999 20.61 46.6924 23.9438 42.5937 23.9944C42.6255 23.9944 42.6555 24 42.6874 24C46.8312 24 50.1874 20.6438 50.1874 16.5C50.1874 12.3562 46.8312 9 42.6874 9Z" fill="#3E2723"/>
<path d="M49.0624 20.4938C49.6999 19.3913 50.0693 18.1162 50.0693 16.7512C50.0697 15.9821 49.9514 15.2175 49.7186 14.4844C49.8968 15.1256 49.9999 15.7969 49.9999 16.4963C49.9999 17.8613 49.6305 19.1363 48.993 20.2388L48.9968 20.2463L41.7068 32.9962H41.9243L49.0624 20.4938Z" fill="white" fill-opacity="0.2"/>
<path d="M42.5 0.1875C51.5806 0.1875 58.9475 7.52438 59 16.5938C59 16.5619 59.0019 16.5319 59.0019 16.5C59.0019 7.3875 51.6144 0 42.5019 0C33.3894 0 26 7.3875 26 16.5C26 16.5319 26.0019 16.5619 26.0019 16.5938C26.0525 7.52438 33.4194 0.1875 42.5 0.1875Z" fill="white" fill-opacity="0.2"/>
<path d="M42.5 32.8125C51.5806 32.8125 58.9475 25.4756 59 16.4062C59 16.4381 59.0019 16.4681 59.0019 16.5C59.0019 25.6125 51.6144 33 42.5019 33C33.3894 33 26 25.6125 26 16.5C26 16.4681 26.0019 16.4381 26.0019 16.4062C26.0525 25.4756 33.4194 32.8125 42.5019 32.8125H42.5Z" fill="#3E2723" fill-opacity="0.15"/>
</g>
<path d="M42.8047 48.4232C41.8993 46.2447 40.0628 43.8925 38.6246 43.149C39.6504 45.1356 40.3622 47.2692 40.7348 49.4738L40.7386 49.5087C38.3826 43.6345 34.3874 41.2667 31.1245 36.1097C30.956 35.8468 30.7923 35.5808 30.6336 35.3118C30.5518 35.1713 30.4752 35.0278 30.4041 34.8817C30.2687 34.6196 30.1644 34.3426 30.0933 34.0564C30.0934 34.0432 30.0886 34.0304 30.0799 34.0205C30.0712 34.0106 30.0591 34.0042 30.046 34.0026C30.0331 33.9991 30.0196 33.9991 30.0067 34.0026C30.004 34.0026 29.9997 34.0075 29.9965 34.008L29.9815 34.0166L29.9895 34.0026C24.7556 37.0672 22.9798 42.7404 22.8163 45.578C20.7262 45.7216 18.7278 46.4916 17.0819 47.7877C16.9101 47.6425 16.7306 47.5066 16.5442 47.3808C16.0694 45.7189 16.0492 43.96 16.4856 42.2877C14.5635 43.2188 12.8556 44.5388 11.47 46.1641H11.4603C10.6345 45.1173 10.6925 41.6656 10.7398 40.9447C10.4955 41.0428 10.2623 41.1667 10.0441 41.314C9.31512 41.8343 8.6336 42.4182 8.00756 43.0587C7.29416 43.782 6.6426 44.5637 6.05969 45.3958V45.399V45.3952C4.72002 47.2945 3.76982 49.4403 3.26395 51.7088L3.236 51.8464C3.15914 52.2787 3.09084 52.7125 3.03116 53.1475C3.03116 53.1631 3.02793 53.1776 3.02632 53.1932C2.84392 54.1412 2.73089 55.1013 2.68814 56.0658V56.1733C2.69271 61.3907 4.65431 66.4166 8.18526 70.2577C11.7162 74.0988 16.5596 76.4756 21.7582 76.9183C26.9568 77.3611 32.1323 75.8376 36.262 72.649C40.3917 69.4603 43.1749 64.8385 44.0617 59.697C44.0967 59.4282 44.1252 59.1621 44.1564 58.8906C44.5856 55.3432 44.121 51.7447 42.8047 48.4227V48.4232ZM18.7883 64.7342C18.8856 64.781 18.977 64.831 19.077 64.8761L19.0916 64.8853C18.9905 64.8369 18.8894 64.7865 18.7883 64.7342V64.7342ZM40.7402 49.5136V49.4937L40.744 49.5152L40.7402 49.5136Z" fill="url(#paint9_linear_76_101)"/>
<path d="M42.8047 48.4233C41.8993 46.2448 40.0628 43.8926 38.6246 43.149C39.6504 45.1357 40.3622 47.2693 40.7348 49.4739V49.4937L40.7386 49.5152C42.3448 54.1114 42.1125 59.1505 40.0902 63.5794C37.702 68.7031 31.9213 73.9559 22.8728 73.7005C13.0958 73.4236 4.48547 66.1681 2.87578 56.6664C2.58276 55.168 2.87578 54.4083 3.02309 53.1906C2.82214 54.1365 2.71 55.0991 2.68814 56.0659V56.1734C2.69271 61.3908 4.65431 66.4167 8.18526 70.2578C11.7162 74.0989 16.5596 76.4756 21.7582 76.9184C26.9568 77.3611 32.1323 75.8377 36.262 72.649C40.3917 69.4604 43.1749 64.8386 44.0617 59.6971C44.0967 59.4283 44.1252 59.1621 44.1564 58.8906C44.5856 55.3432 44.121 51.7448 42.8047 48.4228V48.4233Z" fill="url(#paint10_radial_76_101)"/>
<path d="M42.8047 48.4233C41.8993 46.2448 40.0628 43.8926 38.6246 43.149C39.6504 45.1357 40.3622 47.2693 40.7348 49.4739V49.4937L40.7386 49.5152C42.3448 54.1114 42.1125 59.1505 40.0902 63.5794C37.702 68.7031 31.9213 73.9559 22.8728 73.7005C13.0958 73.4236 4.48547 66.1681 2.87578 56.6664C2.58276 55.168 2.87578 54.4083 3.02309 53.1906C2.82214 54.1365 2.71 55.0991 2.68814 56.0659V56.1734C2.69271 61.3908 4.65431 66.4167 8.18526 70.2578C11.7162 74.0989 16.5596 76.4756 21.7582 76.9184C26.9568 77.3611 32.1323 75.8377 36.262 72.649C40.3917 69.4604 43.1749 64.8386 44.0617 59.6971C44.0967 59.4283 44.1252 59.1621 44.1564 58.8906C44.5856 55.3432 44.121 51.7448 42.8047 48.4228V48.4233Z" fill="url(#paint11_radial_76_101)"/>
<path d="M32.6789 50.8728C32.724 50.9045 32.766 50.9362 32.8084 50.9679C32.285 50.0398 31.6335 49.19 30.8729 48.4437C24.3965 41.9662 29.1756 34.3989 29.9815 34.0145L29.9896 34.0027C24.7557 37.0672 22.9798 42.7404 22.8164 45.5781C23.0594 45.5614 23.3003 45.5405 23.5487 45.5405C25.4058 45.5439 27.2289 46.0391 28.8326 46.9757C30.4363 47.9123 31.7634 49.2569 32.6789 50.8728V50.8728Z" fill="url(#paint12_radial_76_101)"/>
<path d="M23.5621 52.1664C23.5277 52.6846 21.6965 54.4723 21.0562 54.4723C15.1308 54.4723 14.169 58.0568 14.169 58.0568C14.4313 61.0751 16.5346 63.5611 19.0771 64.8762C19.1932 64.9364 19.311 64.9907 19.4287 65.0439C19.6327 65.1343 19.8366 65.2178 20.0405 65.2945C20.9131 65.6033 21.827 65.7796 22.7519 65.8176C33.1375 66.3047 35.1493 53.3981 27.6546 49.6529C29.4227 49.4228 31.2132 49.8576 32.6789 50.8728C31.7633 49.257 30.4362 47.9126 28.8325 46.9761C27.2289 46.0395 25.4058 45.5444 23.5487 45.541C23.3013 45.541 23.0594 45.5614 22.8164 45.5781C20.7263 45.7216 18.7279 46.4917 17.0819 47.7878C17.3997 48.0566 17.7583 48.4163 18.5137 49.1609C19.9276 50.5534 23.554 51.997 23.5621 52.1664V52.1664Z" fill="url(#paint13_radial_76_101)"/>
<path d="M23.5621 52.1664C23.5277 52.6846 21.6965 54.4723 21.0562 54.4723C15.1308 54.4723 14.169 58.0568 14.169 58.0568C14.4313 61.0751 16.5346 63.5611 19.0771 64.8762C19.1932 64.9364 19.311 64.9907 19.4287 65.0439C19.6327 65.1343 19.8366 65.2178 20.0405 65.2945C20.9131 65.6033 21.827 65.7796 22.7519 65.8176C33.1375 66.3047 35.1493 53.3981 27.6546 49.6529C29.4227 49.4228 31.2132 49.8576 32.6789 50.8728C31.7633 49.257 30.4362 47.9126 28.8325 46.9761C27.2289 46.0395 25.4058 45.5444 23.5487 45.541C23.3013 45.541 23.0594 45.5614 22.8164 45.5781C20.7263 45.7216 18.7279 46.4917 17.0819 47.7878C17.3997 48.0566 17.7583 48.4163 18.5137 49.1609C19.9276 50.5534 23.554 51.997 23.5621 52.1664V52.1664Z" fill="url(#paint14_radial_76_101)"/>
<path d="M16.1105 47.0953C16.2794 47.2028 16.4186 47.2964 16.5407 47.3803C16.066 45.7185 16.0457 43.9599 16.482 42.2877C14.56 43.2189 12.852 44.5388 11.4664 46.1641C11.568 46.1614 14.5906 46.1071 16.1105 47.0953V47.0953Z" fill="url(#paint15_radial_76_101)"/>
<path d="M2.87851 56.6664C4.48659 66.1686 13.0985 73.4236 22.8755 73.7004C31.924 73.9564 37.7047 68.7036 40.0929 63.5794C42.1151 59.1506 42.3474 54.1118 40.7413 49.5158V49.4959C40.7413 49.4797 40.7381 49.4711 40.7413 49.476L40.7451 49.5109C41.4843 54.3373 39.0295 59.0132 35.1918 62.175L35.18 62.2019C27.7024 68.2918 20.5464 65.8762 19.098 64.8901C18.997 64.8417 18.8959 64.7914 18.7948 64.7391C14.4351 62.6552 12.634 58.6831 13.02 55.2766C11.9851 55.2919 10.968 55.0067 10.0919 54.4556C9.21579 53.9045 8.5183 53.1112 8.08394 52.1717C9.22837 51.4706 10.5333 51.0742 11.8743 51.0204C13.2154 50.9666 14.5478 51.2571 15.7448 51.8642C18.2125 52.9844 21.0205 53.0948 23.5685 52.1717C23.5605 52.0024 19.9341 50.5588 18.5201 49.1663C17.7647 48.4217 17.4061 48.0631 17.0883 47.7937C16.9166 47.6482 16.7371 47.5122 16.5507 47.3862C16.427 47.3018 16.2878 47.2104 16.1206 47.1007C14.6007 46.1125 11.5781 46.1668 11.4781 46.1695H11.4684C10.6426 45.1227 10.7006 41.671 10.748 40.9501C10.5036 41.0483 10.2704 41.1721 10.0522 41.3194C9.32323 41.8397 8.64171 42.4236 8.01566 43.0641C7.29971 43.7853 6.64545 44.5653 6.05972 45.3958V45.399V45.3953C4.72005 47.2945 3.76986 49.4403 3.26399 51.7088C3.25378 51.7513 2.51345 54.9879 2.87851 56.6658V56.6664Z" fill="url(#paint16_radial_76_101)"/>
<path d="M30.874 48.4437C31.6347 49.1908 32.2863 50.0415 32.8095 50.9706C32.924 51.0566 33.031 51.1426 33.1219 51.2265C37.8461 55.5814 35.3708 61.7374 35.1864 62.1755C39.0241 59.0137 41.4768 54.3378 40.7397 49.5114C38.3827 43.6345 34.3875 41.2667 31.1246 36.1097C30.956 35.8468 30.7924 35.5808 30.6337 35.3118C30.5519 35.1713 30.4753 35.0278 30.4041 34.8817C30.2688 34.6196 30.1645 34.3426 30.0934 34.0564C30.0935 34.0432 30.0887 34.0304 30.08 34.0205C30.0712 34.0106 30.0592 34.0042 30.0461 34.0026C30.0332 33.9991 30.0197 33.9991 30.0068 34.0026C30.0041 34.0026 29.9998 34.0075 29.9966 34.008L29.9815 34.0166C29.1756 34.3983 24.3965 41.9662 30.874 48.4437Z" fill="url(#paint17_radial_76_101)"/>
<path d="M33.1186 51.2239C33.0185 51.1338 32.9143 51.0484 32.8063 50.968C32.7638 50.9357 32.7219 50.9045 32.6767 50.8728C31.2111 49.8574 29.4206 49.4225 27.6525 49.6524C35.1472 53.3997 33.1364 66.3047 22.7497 65.8176C21.8249 65.7796 20.911 65.6033 20.0384 65.2945C19.8344 65.2181 19.6305 65.1346 19.4266 65.0439C19.3088 64.9902 19.1911 64.9364 19.0749 64.8762L19.0895 64.8853C20.5379 65.874 27.6917 68.2897 35.1714 62.1971L35.1832 62.1702C35.3697 61.7347 37.845 55.5772 33.1186 51.2239V51.2239Z" fill="url(#paint18_radial_76_101)"/>
<path d="M14.169 58.0567C14.169 58.0567 15.1308 54.4722 21.0562 54.4722C21.6965 54.4722 23.5293 52.6846 23.5621 52.1658C21.0142 53.089 18.2061 52.9789 15.7384 51.8588C14.5414 51.2516 13.2089 50.9612 11.8679 51.015C10.5269 51.0688 9.22194 51.4652 8.07751 52.1663C8.51187 53.1058 9.20936 53.8991 10.0855 54.4502C10.9616 55.0013 11.9787 55.2864 13.0136 55.2712C12.6276 58.6782 14.4287 62.6503 18.7884 64.7336C18.8857 64.7804 18.9771 64.8304 19.0771 64.8756C16.5325 63.5611 14.4314 61.0745 14.169 58.0567V58.0567Z" fill="url(#paint19_radial_76_101)"/>
<path d="M42.8047 48.4232C41.8993 46.2447 40.0628 43.8925 38.6246 43.149C39.6504 45.1356 40.3622 47.2692 40.7348 49.4738L40.7386 49.5087C38.3826 43.6345 34.3874 41.2667 31.1245 36.1097C30.956 35.8468 30.7923 35.5808 30.6336 35.3118C30.5518 35.1713 30.4752 35.0278 30.4041 34.8817C30.2687 34.6196 30.1644 34.3426 30.0933 34.0564C30.0934 34.0432 30.0886 34.0304 30.0799 34.0205C30.0712 34.0106 30.0591 34.0042 30.046 34.0026C30.0331 33.9991 30.0196 33.9991 30.0067 34.0026C30.004 34.0026 29.9997 34.0075 29.9965 34.008L29.9815 34.0166L29.9895 34.0026C24.7556 37.0672 22.9798 42.7404 22.8163 45.578C23.0593 45.5614 23.3002 45.5404 23.5486 45.5404C25.4058 45.5439 27.2289 46.0391 28.8326 46.9757C30.4363 47.9123 31.7633 49.2569 32.6788 50.8727C31.2132 49.8573 29.4227 49.4224 27.6546 49.6523C35.1493 53.3996 33.1385 66.3046 22.7518 65.8175C21.827 65.7795 20.9131 65.6032 20.0405 65.2944C19.8365 65.2181 19.6326 65.1345 19.4287 65.0439C19.3109 64.9901 19.1932 64.9363 19.077 64.8761L19.0916 64.8853C18.9905 64.8369 18.8894 64.7865 18.7883 64.7342C18.8856 64.781 18.977 64.831 19.077 64.8761C16.5324 63.5611 14.4313 61.075 14.1689 58.0567C14.1689 58.0567 15.1308 54.4722 21.0561 54.4722C21.6964 54.4722 23.5292 52.6846 23.562 52.1658C23.554 51.9969 19.9276 50.5528 18.5136 49.1603C17.7582 48.4162 17.3996 48.0576 17.0819 47.7883C16.9101 47.6428 16.7307 47.5068 16.5442 47.3808C16.0694 45.7189 16.0492 43.96 16.4856 42.2877C14.5635 43.2188 12.8556 44.5388 11.47 46.1641H11.4603C10.6345 45.1173 10.6925 41.6656 10.7398 40.9447C10.4955 41.0428 10.2623 41.1667 10.0441 41.314C9.31512 41.8343 8.6336 42.4182 8.00756 43.0587C7.29416 43.782 6.6426 44.5637 6.05969 45.3958V45.399V45.3952C4.72002 47.2945 3.76982 49.4403 3.26395 51.7088L3.236 51.8464C3.19675 52.0292 3.02094 52.9609 2.99567 53.1609C2.99567 53.176 2.99567 53.1448 2.99567 53.1609C2.83487 54.1222 2.73217 55.0922 2.68814 56.0658V56.1733C2.69271 61.3907 4.65431 66.4166 8.18526 70.2577C11.7162 74.0988 16.5596 76.4756 21.7582 76.9183C26.9568 77.3611 32.1323 75.8376 36.262 72.649C40.3917 69.4603 43.1749 64.8385 44.0617 59.697C44.0967 59.4282 44.1252 59.1621 44.1564 58.8906C44.5856 55.3432 44.121 51.7447 42.8047 48.4227V48.4232ZM40.7375 49.4931L40.7413 49.5157L40.7375 49.4931Z" fill="url(#paint20_linear_76_101)"/>
<g clip-path="url(#clip1_76_101)">
<path d="M83.1012 67.7718C82.5679 68.0507 82.0179 68.2965 81.4544 68.5078C79.6605 69.179 77.7603 69.5209 75.845 69.5171C68.4512 69.5171 62.0106 64.4312 62.0106 57.9046C62.0201 57.0293 62.263 56.1723 62.7143 55.4222C63.1656 54.672 63.8089 54.0559 64.5778 53.6375C57.8903 53.9187 56.1716 60.8875 56.1716 64.9703C56.1716 76.514 66.8106 77.6843 69.1028 77.6843C70.3387 77.6843 72.2028 77.325 73.3216 76.9718L73.5262 76.9031C77.8313 75.4148 81.5014 72.5052 83.9325 68.6531C84.007 68.5358 84.0402 68.397 84.027 68.2587C84.0137 68.1203 83.9548 67.9904 83.8595 67.8893C83.7641 67.7882 83.6378 67.7218 83.5005 67.7005C83.3632 67.6792 83.2227 67.7043 83.1012 67.7718V67.7718Z" fill="url(#paint21_linear_76_101)"/>
<path opacity="0.35" d="M83.1012 67.7718C82.5679 68.0507 82.0179 68.2965 81.4544 68.5078C79.6605 69.179 77.7603 69.5209 75.845 69.5171C68.4512 69.5171 62.0106 64.4312 62.0106 57.9046C62.0201 57.0293 62.263 56.1723 62.7143 55.4222C63.1656 54.672 63.8089 54.0559 64.5778 53.6375C57.8903 53.9187 56.1716 60.8875 56.1716 64.9703C56.1716 76.514 66.8106 77.6843 69.1028 77.6843C70.3387 77.6843 72.2028 77.325 73.3216 76.9718L73.5262 76.9031C77.8313 75.4148 81.5014 72.5052 83.9325 68.6531C84.007 68.5358 84.0402 68.397 84.027 68.2587C84.0137 68.1203 83.9548 67.9904 83.8595 67.8893C83.7641 67.7882 83.6378 67.7218 83.5005 67.7005C83.3632 67.6792 83.2227 67.7043 83.1012 67.7718V67.7718Z" fill="url(#paint22_radial_76_101)"/>
<path d="M63.5174 75.7219C62.1237 74.8569 60.9159 73.7234 59.9642 72.3875C58.8795 70.9014 58.1331 69.1959 57.7773 67.3908C57.4215 65.5856 57.4649 63.7245 57.9046 61.9379C58.3442 60.1513 59.1694 58.4826 60.3223 57.0487C61.4752 55.6148 62.9278 54.4505 64.5783 53.6375C65.0658 53.4078 65.8986 52.9922 67.0064 53.0125C67.7869 53.0182 68.5555 53.2045 69.2519 53.5569C69.9483 53.9093 70.5537 54.4182 71.0205 55.0437C71.6515 55.8862 71.9994 56.9069 72.0142 57.9594C72.0142 57.9265 75.8361 45.5219 59.5142 45.5219C52.6549 45.5219 47.0142 52.0312 47.0142 57.7422C46.9872 60.7632 47.6336 63.7523 48.9064 66.4922C50.9866 70.9306 54.6243 74.4505 59.1288 76.3836C63.6332 78.3166 68.6907 78.5282 73.3408 76.9781C71.7126 77.4915 69.9924 77.6456 68.2989 77.4298C66.6054 77.2139 64.9788 76.6334 63.5314 75.7281L63.5174 75.7219Z" fill="url(#paint23_linear_76_101)"/>
<path opacity="0.41" d="M63.5174 75.7219C62.1237 74.8569 60.9159 73.7234 59.9642 72.3875C58.8795 70.9014 58.1331 69.1959 57.7773 67.3908C57.4215 65.5856 57.4649 63.7245 57.9046 61.9379C58.3442 60.1513 59.1694 58.4826 60.3223 57.0487C61.4752 55.6148 62.9278 54.4505 64.5783 53.6375C65.0658 53.4078 65.8986 52.9922 67.0064 53.0125C67.7869 53.0182 68.5555 53.2045 69.2519 53.5569C69.9483 53.9093 70.5537 54.4182 71.0205 55.0437C71.6515 55.8862 71.9994 56.9069 72.0142 57.9594C72.0142 57.9265 75.8361 45.5219 59.5142 45.5219C52.6549 45.5219 47.0142 52.0312 47.0142 57.7422C46.9872 60.7632 47.6336 63.7523 48.9064 66.4922C50.9866 70.9306 54.6243 74.4505 59.1288 76.3836C63.6332 78.3166 68.6907 78.5282 73.3408 76.9781C71.7126 77.4915 69.9924 77.6456 68.2989 77.4298C66.6054 77.2139 64.9788 76.6334 63.5314 75.7281L63.5174 75.7219Z" fill="url(#paint24_radial_76_101)"/>
<path d="M70.7983 61.2594C70.6718 61.4234 70.2827 61.65 70.2827 62.1437C70.2827 62.5516 70.5483 62.9437 71.0202 63.2734C73.2671 64.8359 77.503 64.6297 77.5139 64.6297C79.1788 64.6257 80.8121 64.1751 82.2436 63.325C83.6877 62.4818 84.8862 61.2757 85.7202 59.8263C86.5543 58.377 86.9949 56.7347 86.9983 55.0625C87.0389 51.5609 85.7483 49.2328 85.2264 48.2016C81.9155 41.725 74.7686 38 66.9967 38C61.7408 37.9995 56.6959 40.068 52.9531 43.7581C49.2104 47.4482 47.0707 52.4633 46.9967 57.7187C47.0717 52.0094 52.7467 47.3984 59.4967 47.3984C60.0436 47.3984 63.1624 47.4516 66.0592 48.9719C68.6124 50.3125 69.9499 51.9312 70.8796 53.5359C71.8452 55.2031 72.0171 57.3094 72.0171 58.1484C72.0171 58.9875 71.5889 60.2312 70.7983 61.2594V61.2594Z" fill="url(#paint25_radial_76_101)"/>
<path d="M70.7983 61.2594C70.6718 61.4234 70.2827 61.65 70.2827 62.1437C70.2827 62.5516 70.5483 62.9437 71.0202 63.2734C73.2671 64.8359 77.503 64.6297 77.5139 64.6297C79.1788 64.6257 80.8121 64.1751 82.2436 63.325C83.6877 62.4818 84.8862 61.2757 85.7202 59.8263C86.5543 58.377 86.9949 56.7347 86.9983 55.0625C87.0389 51.5609 85.7483 49.2328 85.2264 48.2016C81.9155 41.725 74.7686 38 66.9967 38C61.7408 37.9995 56.6959 40.068 52.9531 43.7581C49.2104 47.4482 47.0707 52.4633 46.9967 57.7187C47.0717 52.0094 52.7467 47.3984 59.4967 47.3984C60.0436 47.3984 63.1624 47.4516 66.0592 48.9719C68.6124 50.3125 69.9499 51.9312 70.8796 53.5359C71.8452 55.2031 72.0171 57.3094 72.0171 58.1484C72.0171 58.9875 71.5889 60.2312 70.7983 61.2594V61.2594Z" fill="url(#paint26_radial_76_101)"/>
</g>
<defs>
<linearGradient id="paint0_linear_76_101" x1="30.0013" y1="12.5663" x2="39.845" y2="6.81563" gradientUnits="userSpaceOnUse">
<stop stop-color="#A52714" stop-opacity="0.6"/>
<stop offset="0.66" stop-color="#A52714" stop-opacity="0"/>
</linearGradient>
<linearGradient id="paint1_linear_76_101" x1="45.2937" y1="29.3437" x2="34.3512" y2="22.9312" gradientUnits="userSpaceOnUse">
<stop stop-color="#055524" stop-opacity="0.4"/>
<stop offset="0.33" stop-color="#055524" stop-opacity="0"/>
</linearGradient>
<linearGradient id="paint2_linear_76_101" x1="47.3565" y1="7.8375" x2="50.1127" y2="19.8938" gradientUnits="userSpaceOnUse">
<stop stop-color="#EA6100" stop-opacity="0.3"/>
<stop offset="0.66" stop-color="#EA6100" stop-opacity="0"/>
</linearGradient>
<linearGradient id="paint3_linear_76_101" x1="47.3561" y1="7.8375" x2="50.1124" y2="19.8938" gradientUnits="userSpaceOnUse">
<stop stop-color="#EA6100" stop-opacity="0.3"/>
<stop offset="0.66" stop-color="#EA6100" stop-opacity="0"/>
</linearGradient>
<linearGradient id="paint4_linear_76_101" x1="30.0011" y1="12.5663" x2="39.8448" y2="6.81563" gradientUnits="userSpaceOnUse">
<stop stop-color="#A52714" stop-opacity="0.6"/>
<stop offset="0.66" stop-color="#A52714" stop-opacity="0"/>
</linearGradient>
<radialGradient id="paint5_radial_76_101" cx="0" cy="0" r="1" gradientUnits="userSpaceOnUse" gradientTransform="translate(41.7875 8.99063) scale(15.765)">
<stop stop-color="#3E2723" stop-opacity="0.2"/>
<stop offset="1" stop-color="#3E2723" stop-opacity="0"/>
</radialGradient>
<linearGradient id="paint6_linear_76_101" x1="45.2937" y1="29.3437" x2="34.3512" y2="22.9312" gradientUnits="userSpaceOnUse">
<stop stop-color="#055524" stop-opacity="0.4"/>
<stop offset="0.33" stop-color="#055524" stop-opacity="0"/>
</linearGradient>
<radialGradient id="paint7_radial_76_101" cx="0" cy="0" r="1" gradientUnits="userSpaceOnUse" gradientTransform="translate(28.6063 7.59748) scale(14.6325)">
<stop stop-color="#3E2723" stop-opacity="0.2"/>
<stop offset="1" stop-color="#3E2723" stop-opacity="0"/>
</radialGradient>
<radialGradient id="paint8_radial_76_101" cx="0" cy="0" r="1" gradientUnits="userSpaceOnUse" gradientTransform="translate(42.4625 16.5262) scale(16.4756)">
<stop stop-color="#263238" stop-opacity="0.2"/>
<stop offset="1" stop-color="#263238" stop-opacity="0"/>
</radialGradient>
<linearGradient id="paint9_linear_76_101" x1="40.0466" y1="40.6608" x2="5.45537" y2="74.0348" gradientUnits="userSpaceOnUse">
<stop offset="0.048" stop-color="#FFF44F"/>
<stop offset="0.111" stop-color="#FFE847"/>
<stop offset="0.225" stop-color="#FFC830"/>
<stop offset="0.368" stop-color="#FF980E"/>
<stop offset="0.401" stop-color="#FF8B16"/>
<stop offset="0.462" stop-color="#FF672A"/>
<stop offset="0.534" stop-color="#FF3647"/>
<stop offset="0.705" stop-color="#E31587"/>
</linearGradient>
<radialGradient id="paint10_radial_76_101" cx="0" cy="0" r="1" gradientUnits="userSpaceOnUse" gradientTransform="translate(38.4482 38.7716) scale(43.4397)">
<stop offset="0.129" stop-color="#FFBD4F"/>
<stop offset="0.186" stop-color="#FFAC31"/>
<stop offset="0.247" stop-color="#FF9D17"/>
<stop offset="0.283" stop-color="#FF980E"/>
<stop offset="0.403" stop-color="#FF563B"/>
<stop offset="0.467" stop-color="#FF3750"/>
<stop offset="0.71" stop-color="#F5156C"/>
<stop offset="0.782" stop-color="#EB0878"/>
<stop offset="0.86" stop-color="#E50080"/>
</radialGradient>
<radialGradient id="paint11_radial_76_101" cx="0" cy="0" r="1" gradientUnits="userSpaceOnUse" gradientTransform="translate(22.5749 56.5309) scale(43.4397)">
<stop offset="0.3" stop-color="#960E18"/>
<stop offset="0.351" stop-color="#B11927" stop-opacity="0.74"/>
<stop offset="0.435" stop-color="#DB293D" stop-opacity="0.343"/>
<stop offset="0.497" stop-color="#F5334B" stop-opacity="0.094"/>
<stop offset="0.53" stop-color="#FF3750" stop-opacity="0"/>
</radialGradient>
<radialGradient id="paint12_radial_76_101" cx="0" cy="0" r="1" gradientUnits="userSpaceOnUse" gradientTransform="translate(27.8121 28.9134) scale(31.4703)">
<stop offset="0.132" stop-color="#FFF44F"/>
<stop offset="0.252" stop-color="#FFDC3E"/>
<stop offset="0.506" stop-color="#FF9D12"/>
<stop offset="0.526" stop-color="#FF980E"/>
</radialGradient>
<radialGradient id="paint13_radial_76_101" cx="0" cy="0" r="1" gradientUnits="userSpaceOnUse" gradientTransform="translate(17.7701 67.8778) scale(20.6836)">
<stop offset="0.353" stop-color="#3A8EE6"/>
<stop offset="0.472" stop-color="#5C79F0"/>
<stop offset="0.669" stop-color="#9059FF"/>
<stop offset="1" stop-color="#C139E6"/>
</radialGradient>
<radialGradient id="paint14_radial_76_101" cx="0" cy="0" r="1" gradientUnits="userSpaceOnUse" gradientTransform="translate(24.9488 52.9709) rotate(-13.5916) scale(10.9663 12.8388)">
<stop offset="0.206" stop-color="#9059FF" stop-opacity="0"/>
<stop offset="0.278" stop-color="#8C4FF3" stop-opacity="0.064"/>
<stop offset="0.747" stop-color="#7716A8" stop-opacity="0.45"/>
<stop offset="0.975" stop-color="#6E008B" stop-opacity="0.6"/>
</radialGradient>
<radialGradient id="paint15_radial_76_101" cx="0" cy="0" r="1" gradientUnits="userSpaceOnUse" gradientTransform="translate(22.0267 36.9941) scale(14.8797)">
<stop stop-color="#FFE226"/>
<stop offset="0.121" stop-color="#FFDB27"/>
<stop offset="0.295" stop-color="#FFC82A"/>
<stop offset="0.502" stop-color="#FFA930"/>
<stop offset="0.732" stop-color="#FF7E37"/>
<stop offset="0.792" stop-color="#FF7139"/>
</radialGradient>
<radialGradient id="paint16_radial_76_101" cx="0" cy="0" r="1" gradientUnits="userSpaceOnUse" gradientTransform="translate(33.7224 27.5564) scale(63.4851)">
<stop offset="0.113" stop-color="#FFF44F"/>
<stop offset="0.456" stop-color="#FF980E"/>
<stop offset="0.622" stop-color="#FF5634"/>
<stop offset="0.716" stop-color="#FF3647"/>
<stop offset="0.904" stop-color="#E31587"/>
</radialGradient>
<radialGradient id="paint17_radial_76_101" cx="0" cy="0" r="1" gradientUnits="userSpaceOnUse" gradientTransform="translate(28.3716 31.0862) rotate(83.976) scale(46.5298 30.5371)">
<stop stop-color="#FFF44F"/>
<stop offset="0.06" stop-color="#FFE847"/>
<stop offset="0.168" stop-color="#FFC830"/>
<stop offset="0.304" stop-color="#FF980E"/>
<stop offset="0.356" stop-color="#FF8B16"/>
<stop offset="0.455" stop-color="#FF672A"/>
<stop offset="0.57" stop-color="#FF3647"/>
<stop offset="0.737" stop-color="#E31587"/>
</radialGradient>
<radialGradient id="paint18_radial_76_101" cx="0" cy="0" r="1" gradientUnits="userSpaceOnUse" gradientTransform="translate(21.676 42.5055) scale(39.6349)">
<stop offset="0.137" stop-color="#FFF44F"/>
<stop offset="0.48" stop-color="#FF980E"/>
<stop offset="0.592" stop-color="#FF5634"/>
<stop offset="0.655" stop-color="#FF3647"/>
<stop offset="0.904" stop-color="#E31587"/>
</radialGradient>
<radialGradient id="paint19_radial_76_101" cx="0" cy="0" r="1" gradientUnits="userSpaceOnUse" gradientTransform="translate(32.1385 44.8254) scale(43.3801)">
<stop offset="0.094" stop-color="#FFF44F"/>
<stop offset="0.231" stop-color="#FFE141"/>
<stop offset="0.509" stop-color="#FFAF1E"/>
<stop offset="0.626" stop-color="#FF980E"/>
</radialGradient>
<linearGradient id="paint20_linear_76_101" x1="39.631" y1="40.4823" x2="10.1974" y2="69.9154" gradientUnits="userSpaceOnUse">
<stop offset="0.167" stop-color="#FFF44F" stop-opacity="0.8"/>
<stop offset="0.266" stop-color="#FFF44F" stop-opacity="0.634"/>
<stop offset="0.489" stop-color="#FFF44F" stop-opacity="0.217"/>
<stop offset="0.6" stop-color="#FFF44F" stop-opacity="0"/>
</linearGradient>
<linearGradient id="paint21_linear_76_101" x1="56.1716" y1="65.664" x2="84.0372" y2="65.664" gradientUnits="userSpaceOnUse">
<stop stop-color="#0C59A4"/>
<stop offset="1" stop-color="#114A8B"/>
</linearGradient>
<radialGradient id="paint22_radial_76_101" cx="0" cy="0" r="1" gradientUnits="userSpaceOnUse" gradientTransform="translate(71.5622 65.8836) scale(14.9031 14.158)">
<stop offset="0.72" stop-opacity="0"/>
<stop offset="0.95" stop-opacity="0.53"/>
<stop offset="1"/>
</radialGradient>
<linearGradient id="paint23_linear_76_101" x1="70.8627" y1="53.5765" x2="53.458" y2="72.5344" gradientUnits="userSpaceOnUse">
<stop stop-color="#1B9DE2"/>
<stop offset="0.16" stop-color="#1595DF"/>
<stop offset="0.67" stop-color="#0680D7"/>
<stop offset="1" stop-color="#0078D4"/>
</linearGradient>
<radialGradient id="paint24_radial_76_101" cx="0" cy="0" r="1" gradientUnits="userSpaceOnUse" gradientTransform="translate(58.0274 69.095) rotate(-81.3844) scale(22.4103 18.1053)">
<stop offset="0.76" stop-opacity="0"/>
<stop offset="0.95" stop-opacity="0.5"/>
<stop offset="1"/>
</radialGradient>
<radialGradient id="paint25_radial_76_101" cx="0" cy="0" r="1" gradientUnits="userSpaceOnUse" gradientTransform="translate(51.0378 45.4026) rotate(92.2906) scale(31.655 67.4185)">
<stop stop-color="#35C1F1"/>
<stop offset="0.11" stop-color="#34C1ED"/>
<stop offset="0.23" stop-color="#2FC2DF"/>
<stop offset="0.31" stop-color="#2BC3D2"/>
<stop offset="0.67" stop-color="#36C752"/>
</radialGradient>
<radialGradient id="paint26_radial_76_101" cx="0" cy="0" r="1" gradientUnits="userSpaceOnUse" gradientTransform="translate(84.508 50.0947) rotate(73.7398) scale(15.2094 12.3683)">
<stop stop-color="#66EB6E"/>
<stop offset="1" stop-color="#66EB6E" stop-opacity="0"/>
</radialGradient>
<clipPath id="clip0_76_101">
<rect width="33" height="33" fill="white" transform="translate(26)"/>
</clipPath>
<clipPath id="clip1_76_101">
<rect width="40" height="40" fill="white" transform="translate(47 38)"/>
</clipPath>
</defs>
</svg>
