<svg width="466" height="136" viewBox="0 0 466 136" fill="none" xmlns="http://www.w3.org/2000/svg">
<g clip-path="url(#clip0_75_40)">
<path d="M3.03216 105.518V53.5414H67.7843V50.5011H3.03216V3.08355H71.8782V0.0441895H-0.000476837V108.557H72.4844V105.518H3.03307H3.03216ZM130.868 30.4396L104.028 65.8511L77.7924 30.4406H73.8496L102.207 68.1316L71.1191 108.556H74.7589L104.026 70.4093L133.445 108.556H137.236L105.997 68.1298L134.506 30.4387H130.867L130.868 30.4396ZM146.335 135.306V86.6733H146.638C148.459 93.7655 152.048 99.4648 157.406 103.771C162.764 108.077 169.587 110.23 177.877 110.23C183.235 110.23 187.987 109.141 192.132 106.963C196.277 104.785 199.739 101.821 202.519 98.0719C205.299 94.3228 207.422 89.9663 208.889 85.0013C210.354 80.0373 211.088 74.8187 211.088 69.3484C211.088 63.4713 210.328 58.0502 208.812 53.0862C207.296 48.1212 205.097 43.8149 202.216 40.168C199.335 36.5202 195.847 33.6824 191.752 31.6574C187.658 29.6306 183.033 28.6171 177.877 28.6171C173.934 28.6171 170.27 29.2 166.883 30.3649C163.496 31.5306 160.489 33.1762 157.861 35.3043C155.217 37.4487 152.915 39.9856 151.036 42.827C149.116 45.7149 147.65 48.8811 146.638 52.3263H146.335V30.4396H143.303V135.306H146.335V135.306ZM177.877 107.341C168.375 107.341 160.741 104.074 154.979 97.5392C149.217 91.0043 146.335 81.6062 146.335 69.3466C146.335 64.2804 147.043 59.4678 148.459 54.9087C149.874 50.3497 151.921 46.347 154.6 42.9027C157.279 39.4574 160.59 36.7218 164.532 34.6958C168.475 32.669 172.924 31.6556 177.877 31.6556C182.932 31.6556 187.355 32.669 191.146 34.6958C194.937 36.7218 198.071 39.4829 200.548 42.9784C203.024 46.4738 204.895 50.4765 206.159 54.9844C207.422 59.4933 208.054 64.2804 208.054 69.3466C208.054 73.9066 207.473 78.441 206.31 82.9489C205.148 87.4578 203.353 91.5106 200.927 95.1082C198.501 98.704 195.393 101.642 191.601 103.923C187.809 106.202 183.235 107.341 177.877 107.341V107.341ZM227.768 108.557V64.3315C227.768 60.0762 228.374 55.9212 229.588 51.8693C230.801 47.8166 232.671 44.2445 235.198 41.155C237.726 38.0645 240.935 35.6327 244.828 33.8594C248.72 32.0861 253.345 31.3518 258.703 31.6556V28.6162C254.052 28.5159 249.984 29.0212 246.496 30.1359C243.008 31.2506 240 32.7703 237.473 34.6958C234.945 36.6205 232.924 38.8745 231.408 41.4587C229.892 44.0388 228.768 46.8301 228.071 49.7412H227.768V30.4396H224.735V108.558H227.768V108.557ZM262.494 70.1064H327.7C327.903 64.7365 327.373 59.5699 326.109 54.605C324.845 49.64 322.823 45.2324 320.043 41.383C317.263 37.5327 313.674 34.4423 309.276 32.1117C304.878 29.7811 299.647 28.6162 293.581 28.6162C289.234 28.6162 284.988 29.5284 280.843 31.3527C276.698 33.1762 273.058 35.8352 269.925 39.3306C266.791 42.8261 264.263 47.1069 262.343 52.174C260.423 57.2393 259.461 63.0143 259.461 69.4989C259.461 75.2739 260.119 80.6694 261.433 85.6845C262.747 90.6997 264.769 95.0571 267.498 98.7551C270.229 102.453 273.742 105.315 278.038 107.341C282.334 109.368 287.515 110.331 293.581 110.229C302.477 110.229 309.959 107.721 316.024 102.707C322.09 97.6906 325.679 90.624 326.791 81.505H323.758C322.444 90.1177 319.082 96.5768 313.674 100.882C308.265 105.189 301.467 107.341 293.277 107.341C287.717 107.341 283.016 106.379 279.175 104.454C275.334 102.53 272.199 99.8944 269.773 96.5513C267.347 93.2072 265.552 89.2812 264.39 84.7724C263.227 80.2644 262.595 75.3752 262.494 70.1064ZM324.668 67.0671H262.495C262.797 61.5959 263.808 56.682 265.527 52.3254C267.246 47.968 269.495 44.2445 272.276 41.155C275.055 38.0645 278.291 35.7093 281.981 34.0874C285.67 32.4665 289.639 31.6556 293.884 31.6556C298.939 31.6556 303.386 32.5933 307.229 34.4678C311.07 36.3423 314.28 38.901 316.859 42.1428C319.436 45.3847 321.382 49.1593 322.696 53.4647C324.011 57.7711 324.668 62.3055 324.668 67.0671ZM390.633 53.5414H393.666C393.666 44.8274 391.138 38.4951 386.084 34.5435C381.028 30.592 374.154 28.6162 365.46 28.6162C360.607 28.6162 356.513 29.2246 353.177 30.4406C349.841 31.6556 347.111 33.2263 344.988 35.151C342.865 37.0757 341.349 39.2038 340.439 41.5344C339.529 43.865 339.074 46.0944 339.074 48.2216C339.074 52.4769 339.832 55.8711 341.349 58.4042C342.865 60.9373 345.241 62.913 348.476 64.3315C350.7 65.344 353.227 66.2562 356.058 67.068C358.889 67.878 362.174 68.7391 365.915 69.6504C369.251 70.4622 372.537 71.2722 375.772 72.0822C379.007 72.8931 381.863 73.9823 384.339 75.3496C386.817 76.7179 388.838 78.4656 390.406 80.5937C391.972 82.7209 392.756 85.5076 392.756 88.952C392.756 92.296 391.973 95.1328 390.406 97.4625C388.852 99.781 386.806 101.727 384.416 103.163C381.989 104.631 379.284 105.695 376.303 106.353C373.32 107.012 370.414 107.341 367.583 107.341C358.384 107.341 351.332 105.29 346.429 101.187C341.526 97.0831 339.075 90.624 339.075 81.8087H336.041C336.041 91.6374 338.695 98.8308 344.002 103.391C349.31 107.95 357.17 110.229 367.583 110.229C370.919 110.229 374.28 109.849 377.668 109.089C381.054 108.329 384.087 107.089 386.766 105.366C389.422 103.667 391.653 101.379 393.286 98.6794C394.955 95.9429 395.789 92.5997 395.789 88.6482C395.789 84.8992 395.056 81.8598 393.59 79.5292C392.124 77.1995 390.204 75.2739 387.827 73.7542C385.452 72.2345 382.773 71.0442 379.79 70.1831C376.791 69.3169 373.783 68.4807 370.767 67.6746C367.055 66.6986 363.34 65.7363 359.621 64.7876C356.438 63.9766 353.481 63.0143 350.751 61.8996C348.122 60.7849 346.025 59.1895 344.457 57.1125C342.89 55.0355 342.107 52.0719 342.107 48.2216C342.107 47.5128 342.309 46.2458 342.713 44.4224C343.118 42.598 344.079 40.749 345.595 38.8745C347.111 37.0009 349.436 35.3289 352.57 33.8594C355.704 32.3908 360.001 31.6556 365.46 31.6556C369.201 31.6556 372.612 32.0615 375.696 32.8715C378.779 33.6824 381.433 34.9741 383.657 36.7473C385.881 38.5206 387.6 40.7746 388.813 43.5102C390.026 46.2467 390.633 49.5898 390.633 53.5414V53.5414ZM460.844 53.5414H463.876C463.876 44.8274 461.35 38.4951 456.295 34.5435C451.24 30.592 444.365 28.6162 435.67 28.6162C430.818 28.6162 426.724 29.2246 423.388 30.4406C420.051 31.6556 417.322 33.2263 415.199 35.151C413.076 37.0757 411.559 39.2038 410.649 41.5344C409.739 43.865 409.285 46.0944 409.285 48.2216C409.285 52.4769 410.043 55.8711 411.56 58.4042C413.076 60.9373 415.452 62.913 418.687 64.3315C420.911 65.344 423.438 66.2562 426.268 67.068C429.099 67.878 432.385 68.7391 436.125 69.6504C439.462 70.4622 442.748 71.2722 445.982 72.0822C449.218 72.8931 452.073 73.9823 454.551 75.3496C457.027 76.7179 459.05 78.4656 460.616 80.5937C462.183 82.7209 462.967 85.5076 462.967 88.952C462.967 92.296 462.183 95.1328 460.616 97.4625C459.062 99.7809 457.017 101.727 454.627 103.163C452.2 104.631 449.496 105.695 446.513 106.353C443.531 107.012 440.624 107.341 437.794 107.341C428.594 107.341 421.543 105.29 416.64 101.187C411.736 97.0831 409.285 90.624 409.285 81.8087H406.252C406.252 91.6374 408.905 98.8308 414.213 103.391C419.521 107.95 427.381 110.229 437.794 110.229C441.13 110.229 444.492 109.849 447.878 109.089C451.264 108.329 454.298 107.089 456.977 105.366C459.633 103.667 461.864 101.379 463.498 98.6794C465.166 95.9429 466 92.5997 466 88.6482C466 84.8992 465.267 81.8598 463.801 79.5292C462.335 77.1995 460.415 75.2739 458.038 73.7542C455.663 72.2345 452.983 71.0442 450.002 70.1831C447.002 69.3169 443.994 68.4807 440.978 67.6746C437.267 66.6986 433.551 65.7363 429.833 64.7876C426.648 63.9766 423.691 63.0143 420.961 61.8996C418.333 60.7849 416.235 59.1895 414.669 57.1125C413.101 55.0355 412.318 52.0719 412.318 48.2216C412.318 47.5128 412.52 46.2458 412.925 44.4224C413.329 42.598 414.29 40.749 415.805 38.8745C417.322 37.0009 419.647 35.3289 422.781 33.8594C425.915 32.3908 430.211 31.6556 435.671 31.6556C439.412 31.6556 442.823 32.0615 445.907 32.8715C448.991 33.6824 451.644 34.9741 453.868 36.7473C456.092 38.5206 457.811 40.7746 459.024 43.5102C460.237 46.2467 460.844 49.5898 460.844 53.5414H460.844Z" fill="white"/>
</g>
<defs>
<clipPath id="clip0_75_40">
<rect width="466" height="136" fill="white"/>
</clipPath>
</defs>
</svg>
